<svg width="91" height="23" viewBox="0 0 91 23" fill="none" xmlns="http://www.w3.org/2000/svg">
<g clip-path="url(#clip0_2004_633)">
<path fill-rule="evenodd" clip-rule="evenodd" d="M49.5282 18.9975H49.7662V17.8314L50.1826 18.9975H50.4008L50.8172 17.8314V18.9975H51.0552V17.4896H50.6982L50.3016 18.6758L49.8852 17.4896H49.5282V18.9975ZM48.1401 17.7108H48.616V18.9975H48.8738V17.7108H49.3498V17.4896H48.1401V17.7108ZM42.324 18.9982L57.122 4H49.9631L35.1651 18.9982H42.324ZM43.5181 9.24754H29.1211C24.7385 9.24754 23.9651 9.48881 22.0812 11.3988C20.3163 13.1882 14.5699 18.9903 14.5699 18.9903H20.8166L25.1946 14.5554C26.1663 13.5702 26.6819 13.4697 28.7245 13.4697H39.3735L43.5181 9.24754ZM21.8829 10.5343C20.5939 11.7808 15.0013 17.4921 13.4743 19H7C7 19 14.9025 10.6348 17.8969 7.6391C20.9707 4.68359 22.4977 4 28.1494 4H48.6939L44.2519 8.50364H28.5658C24.5997 8.50364 23.7073 8.78512 21.8829 10.5343Z" fill="#E10500"/>
<path d="M63.9259 17V8.225H59.6509V5.75H71.2009V8.225H66.9259V17H63.9259ZM75.0306 5.75L77.4306 14.315C77.4606 14.435 77.4906 14.525 77.5356 14.585C77.5806 14.645 77.6556 14.675 77.7456 14.675C77.8356 14.675 77.9106 14.645 77.9556 14.585C78.0006 14.525 78.0456 14.435 78.0906 14.3L80.5506 5.75H83.5806L80.7906 14.525C80.5206 15.335 80.1606 15.98 79.7106 16.445C79.2456 16.925 78.6006 17.15 77.7606 17.15C76.8456 17.15 76.1556 16.94 75.7056 16.49C75.2556 16.055 74.8806 15.395 74.6106 14.525L71.7306 5.75H75.0306Z" fill="black"/>
<path d="M1.22003e-05 0L0.000134278 23" stroke="#A0A0A0" stroke-width="0.5"/>
<path d="M91.0499 0L91.05 23" stroke="#A0A0A0" stroke-width="0.5"/>
</g>
<defs>
<clipPath id="clip0_2004_633">
<rect width="91" height="23" fill="white"/>
</clipPath>
</defs>
</svg>
