<svg width="13" height="17" viewBox="0 0 13 17" fill="none" xmlns="http://www.w3.org/2000/svg">
<path d="M13.2528 5.81542C13.187 5.74903 13.1086 5.69633 13.0223 5.66037C12.936 5.62441 12.8434 5.6059 12.7499 5.6059C12.6564 5.6059 12.5638 5.62441 12.4775 5.66037C12.3912 5.69633 12.3128 5.74903 12.247 5.81542L9.00283 9.05958C8.93698 9.12597 8.85864 9.17867 8.77232 9.21463C8.686 9.25059 8.59342 9.2691 8.49991 9.2691C8.4064 9.2691 8.31382 9.25059 8.2275 9.21463C8.14119 9.17867 8.06284 9.12597 7.99699 9.05958L4.75283 5.81542C4.68698 5.74903 4.60864 5.69633 4.52232 5.66037C4.436 5.62441 4.34342 5.6059 4.24991 5.6059C4.1564 5.6059 4.06382 5.62441 3.9775 5.66037C3.89118 5.69633 3.81284 5.74903 3.74699 5.81542C3.61507 5.94813 3.54102 6.12766 3.54102 6.31479C3.54102 6.50192 3.61507 6.68145 3.74699 6.81417L6.99824 10.0654C7.39668 10.4634 7.93678 10.6869 8.49991 10.6869C9.06304 10.6869 9.60314 10.4634 10.0016 10.0654L13.2528 6.81417C13.3848 6.68145 13.4588 6.50192 13.4588 6.31479C13.4588 6.12766 13.3848 5.94813 13.2528 5.81542Z" fill="white"/>
</svg>
