<svg width="44" height="29" viewBox="0 0 44 29" fill="none" xmlns="http://www.w3.org/2000/svg">
<path fill-rule="evenodd" clip-rule="evenodd" d="M14.0521 0.0110381C12.4311 0.145866 11.5023 0.32293 10.1835 0.748548C6.84692 1.82531 3.97673 4.05704 2.13042 7.01025C1.82971 7.49124 1.24336 8.63314 1.0385 9.13677C0.543132 10.3545 0.209791 11.6874 0.0564536 13.0639C-0.010704 13.6667 -0.0201232 15.2228 0.03997 15.7907C0.214561 17.441 0.578607 18.8238 1.21428 20.2514C2.68679 23.5584 5.4531 26.2772 8.82416 27.7305C11.5835 28.9201 14.5514 29.2791 17.5384 28.7845C18.914 28.5567 20.2059 28.1482 21.5828 27.5057L22.0645 27.281L22.5462 27.5062C23.8634 28.122 25.1532 28.5198 26.6045 28.7581C27.9428 28.9778 29.5783 29.0105 30.9332 28.8446C35.8582 28.2414 40.1419 25.3186 42.401 21.0201C43.244 19.4161 43.7613 17.6727 43.9484 15.8056C44.0097 15.194 44.0181 13.8766 43.9644 13.3011C43.7797 11.3216 43.2622 9.56873 42.3589 7.86229C41.2429 5.7543 39.5955 3.93194 37.5763 2.57171C36.1511 1.61167 34.4207 0.849054 32.7387 0.439768C29.9855 -0.230135 27.0701 -0.132682 24.404 0.718405C23.7097 0.940046 23.2655 1.11468 22.5985 1.42832L22.0163 1.70207L21.6352 1.51534C20.0981 0.762152 18.336 0.262318 16.5258 0.0659889C16.1102 0.0209078 14.3922 -0.0172672 14.0521 0.0110381ZM14.6932 0.892386C13.8145 1.67216 13.3069 2.17644 12.7176 2.85509C11.8408 3.86489 11.0086 5.06477 10.3496 6.26904L10.1835 6.57266L8.76801 6.57284L7.35256 6.57299L7.10286 6.43567C6.50988 6.10958 5.89546 5.71633 5.33628 5.30497C5.12603 5.15031 4.94076 5.01207 4.92458 4.99779C4.8873 4.96483 5.1997 4.65412 5.69592 4.23058C8.03215 2.23652 11.035 1.04731 14.1744 0.872943C14.637 0.847246 14.7397 0.851099 14.6932 0.892386ZM16.4069 0.929583C19.4862 1.22977 22.4705 2.56975 24.6639 4.63711C24.9752 4.93051 25.0099 4.9731 24.966 5.0076C24.1532 5.64576 22.9461 6.40149 22.0596 6.82717L21.7641 6.96905L21.5856 6.8106C21.1139 6.39201 20.5404 6.16557 19.8654 6.1313L19.5164 6.11358L19.2275 5.62454C18.2981 4.05132 17.1941 2.68834 15.7622 1.34604L15.2295 0.846623L15.5965 0.866482C15.7983 0.877418 16.163 0.905813 16.4069 0.929583ZM28.2754 0.963787C28.277 1.0086 28.3011 1.25203 28.3289 1.5047L28.3796 1.96411L29.2243 1.97199L30.0689 1.97984L30.0872 1.80898C30.0973 1.71499 30.1217 1.47471 30.1415 1.275L30.1773 0.911918L30.2877 0.912511C30.521 0.913727 31.8037 1.10259 31.877 1.14651C31.8998 1.16015 31.8825 1.33013 31.8209 1.69774C31.7719 1.99007 31.7347 2.2321 31.7383 2.23557C31.7495 2.24636 33.3614 2.65876 33.3664 2.65212C33.369 2.64865 33.458 2.42242 33.5641 2.14935C33.6702 1.87629 33.7662 1.6529 33.7773 1.6529C33.8252 1.6529 34.6791 1.99662 35.0047 2.14695L35.3605 2.31121L35.1334 2.81567C35.0085 3.09312 34.9103 3.32276 34.9152 3.32602C34.9391 3.34191 36.3279 4.09925 36.3468 4.10666C36.3587 4.11137 36.4899 3.95132 36.6383 3.75099C36.7867 3.55069 36.932 3.35628 36.9612 3.319L37.0143 3.25118L37.4066 3.53702C37.8651 3.87112 38.3608 4.26603 38.363 4.29899C38.3639 4.31164 38.2132 4.50495 38.0282 4.72854C37.8432 4.95214 37.6918 5.14391 37.6918 5.1547C37.6918 5.18342 38.8557 6.26178 38.8867 6.26178C38.9012 6.26178 39.0939 6.11723 39.3151 5.94055L39.7172 5.61929L39.8131 5.73058C40.2652 6.25523 40.7675 6.93648 40.7373 6.9839C40.7263 7.00103 40.5321 7.14493 40.3055 7.30365C40.079 7.46237 39.8937 7.60217 39.8937 7.61433C39.8937 7.63928 40.68 8.94563 40.7176 8.98315C40.7309 8.99646 40.9585 8.91234 41.2233 8.79622C41.4881 8.68012 41.7084 8.58919 41.7129 8.5942C41.7857 8.67514 42.3708 10.0524 42.3708 10.1426C42.3708 10.1472 42.1437 10.2347 41.8662 10.3372C41.5887 10.4396 41.3616 10.5385 41.3616 10.557C41.3616 10.5934 41.783 12.0896 41.7967 12.1019C41.8013 12.106 42.0383 12.0712 42.3235 12.0245C42.6086 11.9779 42.8469 11.9446 42.853 11.9506C42.9062 12.002 43.0967 13.5597 43.0543 13.5961C43.04 13.6084 42.8013 13.6415 42.5237 13.6697C42.2462 13.698 42.0108 13.7299 42.0007 13.7408C41.9906 13.7516 41.9888 14.1214 41.9968 14.5624L42.0113 15.3644L42.5312 15.4133C42.8172 15.4401 43.0566 15.4674 43.0632 15.4738C43.0997 15.5092 42.8946 16.9824 42.8467 17.0288C42.8293 17.0458 41.8812 16.9255 41.8005 16.8961C41.7607 16.8816 41.3501 18.4613 41.3861 18.4905C41.3979 18.5001 41.6139 18.5781 41.8662 18.6638C42.1185 18.7495 42.3362 18.8299 42.3499 18.8424C42.3975 18.8859 41.7913 20.3451 41.7136 20.374C41.6944 20.3811 41.4663 20.2998 41.2067 20.1932C40.9471 20.0867 40.7253 19.9995 40.7137 19.9995C40.6966 19.9995 39.8937 21.3808 39.8937 21.4103C39.8937 21.4152 40.0937 21.5543 40.3382 21.7193L40.7827 22.0193L40.6384 22.2172C40.4147 22.5238 39.9699 23.0876 39.8375 23.2321C39.7448 23.3334 39.7088 23.3553 39.676 23.3303C39.6527 23.3126 39.466 23.1695 39.261 23.0122C39.056 22.855 38.8769 22.7263 38.8631 22.7263C38.8402 22.7263 38.2595 23.2886 37.848 23.7093L37.6837 23.8772L38.0242 24.2669C38.2114 24.4812 38.3646 24.6682 38.3646 24.6824C38.3646 24.7351 37.0855 25.7231 37.0233 25.7183C37.0126 25.7175 36.8543 25.5235 36.6718 25.2872C36.3546 24.8765 36.337 24.8593 36.2742 24.8984C36.2381 24.9209 35.9265 25.1038 35.5817 25.3048C35.2368 25.5058 34.9434 25.6797 34.9296 25.6913C34.9158 25.7028 35.0095 25.9288 35.1379 26.1934C35.2663 26.458 35.3667 26.6791 35.3609 26.6846C35.2968 26.7467 33.8905 27.3209 33.8055 27.3197C33.7782 27.3193 33.6842 27.134 33.5527 26.8213L33.3433 26.3234L32.5522 26.5491C32.1171 26.6733 31.7539 26.7818 31.7452 26.7903C31.7364 26.7988 31.7721 27.0354 31.8246 27.316C31.877 27.5967 31.9132 27.8328 31.9051 27.8406C31.8566 27.8877 30.2467 28.1172 30.2106 28.0822C30.202 28.0738 30.1685 27.869 30.1361 27.627C30.1038 27.385 30.0694 27.142 30.0598 27.0869L30.0421 26.9869L29.2109 27.0086C28.7537 27.0204 28.3761 27.0333 28.3718 27.0371C28.3675 27.041 28.3441 27.2812 28.3199 27.571C28.2956 27.8607 28.2693 28.1041 28.2614 28.1118C28.228 28.1441 26.6337 27.9721 26.5604 27.9282C26.5496 27.9217 26.5723 27.6923 26.6107 27.4183C26.6491 27.1444 26.681 26.893 26.6815 26.8597C26.6823 26.8049 26.607 26.7818 25.8837 26.6155C25.4444 26.5146 25.0748 26.4381 25.0623 26.4456C25.0497 26.4531 24.9597 26.683 24.8621 26.9565C24.7646 27.23 24.6804 27.459 24.6751 27.4654C24.6395 27.5082 22.9514 26.8425 22.9514 26.7858C22.9514 26.775 23.0718 26.6888 23.219 26.5943C23.9939 26.0966 24.7543 25.4926 25.4747 24.8024L25.9339 24.3626L26.3157 24.4642C27.4288 24.7605 28.4885 24.8734 29.7048 24.8254C31.538 24.7529 33.4282 24.1603 35.0618 23.1457C35.3623 22.959 35.9278 22.5559 36.1416 22.3759L36.2888 22.2521H38.0148C38.9641 22.2521 39.7408 22.242 39.7408 22.2296C39.7408 22.2173 39.5305 21.4937 39.2736 20.6217L38.8064 19.0362L38.9503 18.725C39.4946 17.5484 39.7952 16.3148 39.8605 14.9903C39.9855 12.4561 39.1724 10.0101 37.5503 8.04012C37.1821 7.59305 36.3206 6.76271 35.8482 6.39963C34.1425 5.08872 32.1682 4.339 29.9867 4.17373C28.7776 4.08215 27.4489 4.21274 26.2886 4.53722L25.9407 4.6345L25.5088 4.21754C24.8197 3.55244 23.9248 2.84424 23.1842 2.37808L22.9124 2.207L23.1077 2.11986C23.6667 1.87048 24.6172 1.52118 24.6627 1.54842C24.6746 1.5555 24.7712 1.78864 24.8775 2.06651C24.9838 2.34438 25.0854 2.57171 25.1033 2.57171C25.1581 2.57171 26.6658 2.18029 26.6871 2.1605C26.6981 2.1503 26.6657 1.90429 26.6152 1.61386C26.5647 1.32343 26.5282 1.0811 26.5341 1.07532C26.5717 1.03889 27.7754 0.894698 28.1121 0.88628C28.2672 0.882427 28.2727 0.885036 28.2754 0.963787ZM16.8778 3.19131C17.5876 4.01614 18.299 4.99954 18.7869 5.83002L19.0034 6.19853L18.7483 6.29156C18.3942 6.42061 18.1082 6.5927 17.8316 6.84306C17.4451 7.19289 17.185 7.59829 17.0442 8.07047C17.0054 8.2005 16.962 8.31505 16.9476 8.32501C16.9027 8.35622 16.23 8.41449 15.7111 8.43213L15.2142 8.44902L15.215 4.96945L15.2158 1.48988L15.8504 2.1123C16.1994 2.45463 16.6618 2.94018 16.8778 3.19131ZM14.7249 4.98842V8.44247L14.442 8.43397L14.1591 8.42543L14.151 7.49921L14.143 6.57299H12.4461C11.5128 6.57299 10.7493 6.56647 10.7493 6.55849C10.7493 6.53176 11.0915 5.93978 11.3353 5.54472C11.8935 4.64028 12.5257 3.79841 13.3009 2.92738C13.6129 2.57684 14.6591 1.53434 14.6989 1.53434C14.7132 1.53434 14.7249 3.08867 14.7249 4.98842ZM30.291 4.67665C33.0825 4.98531 35.5167 6.30253 37.2519 8.4433C39.1446 10.7784 39.8331 13.9218 39.0949 16.8578C38.9983 17.242 38.775 17.915 38.659 18.1715L38.5923 18.319L36.9127 12.5201L35.233 6.72118H31.8921H28.5512L28.4404 7.06944C28.3794 7.26097 28.3073 7.48774 28.2802 7.57331C28.253 7.65887 28.223 7.72882 28.2135 7.7287C28.204 7.72862 28.1422 7.6319 28.0764 7.51382C27.7048 6.84792 27.1496 6.0442 26.6381 5.43188C26.4611 5.21996 26.3161 5.03777 26.3158 5.02704C26.3153 5.00143 27.0042 4.8418 27.4316 4.76856C27.7226 4.71868 28.053 4.68103 28.609 4.63438C28.8469 4.6144 29.9875 4.64307 30.291 4.67665ZM4.94752 5.61176C5.15294 5.76778 5.5513 6.04452 5.8328 6.22677L6.34462 6.55817L4.95358 6.56587L3.56253 6.57358V10.4115V14.2495H2.21482H0.867146L0.883905 14.0198C0.89311 13.8935 0.908737 13.6634 0.918584 13.5085C1.08018 10.9726 2.11751 8.31313 3.75526 6.23587C4.05514 5.85551 4.51604 5.32814 4.54861 5.32814C4.56262 5.32814 4.74213 5.45577 4.94752 5.61176ZM25.5834 5.56004C26.3919 6.47604 27.0043 7.36622 27.5578 8.4302L27.8378 8.96848L27.4745 10.1048C27.2746 10.7298 26.895 11.918 26.6308 12.7453L26.1505 14.2495H24.1992H22.248V13.1973V12.1451H21.9122C21.5884 12.1451 21.5759 12.1428 21.5627 12.0784C21.5551 12.0418 21.5121 11.8055 21.4669 11.5535C21.4217 11.3014 21.3793 11.0813 21.3726 11.0644C21.3659 11.0475 21.4365 10.9747 21.5296 10.9028C21.8462 10.6579 22.1377 10.2725 22.3106 9.86974C22.6135 9.1646 22.5864 8.32406 22.2387 7.63999C22.1682 7.50143 22.1065 7.3795 22.1014 7.36903C22.0963 7.35857 22.2545 7.26663 22.453 7.1647C23.3621 6.69774 24.2903 6.12232 24.9545 5.61404C25.1563 5.45959 25.3352 5.33306 25.3521 5.33289C25.3689 5.33271 25.473 5.43493 25.5834 5.56004ZM16.9372 9.04758C17.0375 10.1977 17.8768 11.1609 19.035 11.455C19.5649 11.5896 20.2373 11.5529 20.7229 11.3628C20.8284 11.3215 20.9182 11.291 20.9224 11.2951C20.9267 11.2992 20.9586 11.4622 20.9935 11.6572C21.0284 11.8522 21.0637 12.0418 21.072 12.0784L21.0871 12.1451H19.114H17.1408V13.1973V14.2495H16.1775H15.2142V11.5865V8.92352L15.757 8.9012C16.0556 8.88893 16.4031 8.86883 16.5292 8.85656C16.959 8.81474 16.9151 8.79417 16.9372 9.04758ZM14.7249 11.582V14.2495H14.175H13.625L13.6168 13.5308L13.6086 12.812L11.3834 12.8044L9.1582 12.7968L9.16625 11.7819L9.17429 10.7669L11.6591 10.7593L14.1438 10.7517V9.83311V8.91448H14.4344H14.7249V11.582ZM32.2156 14.8423C32.4712 15.91 32.6872 16.807 32.6957 16.8355C32.7101 16.8842 32.6492 16.8874 31.7151 16.8874C31.1673 16.8874 30.7185 16.8774 30.7177 16.8652C30.7137 16.8011 31.716 12.8636 31.732 12.8807C31.7425 12.8918 31.96 13.7745 32.2156 14.8423ZM3.56253 18.4879V22.2521L5.09927 22.2526L6.636 22.2531L6.52897 22.3176C6.08611 22.5844 5.48588 22.9833 5.05235 23.299L4.53907 23.6727L4.43531 23.5613C4.20166 23.3107 3.93114 22.9854 3.63192 22.5951C2.18822 20.7123 1.26985 18.4689 0.979779 16.1168C0.945038 15.8349 0.87259 14.9179 0.871489 14.746C0.871397 14.7337 1.47685 14.7237 2.21693 14.7237H3.56253V18.4879ZM14.7249 17.3873V20.0508L14.3044 20.0711C12.8525 20.1414 11.5256 20.3559 10.2616 20.7247C10.1196 20.7662 9.99254 20.7896 9.97929 20.7767C9.89526 20.6953 9.40937 19.2724 9.23805 18.606C9.1605 18.3043 9.1582 18.2697 9.16612 17.5242L9.17429 16.754L11.3991 16.7464L13.6239 16.7388V15.7313V14.7237H14.1744H14.7249V17.3873ZM17.1408 17.4677V20.2117L17.0567 20.1948C16.9007 20.1636 16.0888 20.093 15.65 20.0725L15.2142 20.0521V17.3879V14.7237H16.1775H17.1408V17.4677ZM25.9771 14.7608C25.9761 14.7812 25.4355 16.4717 24.7757 18.5175L23.576 22.2373L25.0518 22.2521L26.5275 22.2669L26.2037 22.6818C25.7467 23.2673 25.37 23.6836 25.3262 23.6514C25.3068 23.637 25.1351 23.509 24.9448 23.3667C24.2675 22.8608 23.4685 22.3589 22.6532 21.9275L22.248 21.7131V18.2184V14.7237H24.1135C25.5865 14.7237 25.9786 14.7315 25.9771 14.7608ZM9.35273 20.5373C9.43121 20.7435 9.4954 20.9256 9.4954 20.9421C9.4954 20.9685 9.25016 21.0665 9.18414 21.0665C9.17031 21.0665 9.159 20.8504 9.159 20.5864C9.159 20.3223 9.1705 20.1189 9.18453 20.1344C9.19857 20.1498 9.27426 20.3312 9.35273 20.5373ZM33.5445 20.407C33.5533 20.4355 33.6441 20.8123 33.7464 21.2443C33.8487 21.6763 33.9461 22.0796 33.9629 22.1404L33.9935 22.251L34.732 22.2589L35.4706 22.2669L35.1895 22.4595C33.6833 23.4918 32.0575 24.1066 30.2785 24.3165C29.7956 24.3735 28.6474 24.381 28.1809 24.3302C27.536 24.2599 26.41 24.0414 26.3356 23.972C26.3215 23.9589 26.4183 23.8233 26.5507 23.6707C26.8414 23.3354 27.2909 22.7608 27.4922 22.467L27.6394 22.2521H28.4853H29.3311L29.5695 21.3036L29.8079 20.3552H31.6682C33.4135 20.3552 33.5295 20.3584 33.5445 20.407ZM14.7249 24.0029V27.4728L14.4573 27.235C14.1384 26.9515 13.4327 26.2185 13.0415 25.7643C12.4391 25.0648 11.7922 24.1817 11.2828 23.3635C11.049 22.9881 10.2739 21.5326 10.2058 21.3413L10.1718 21.2455L10.4223 21.1703C11.5695 20.8259 13.2938 20.5553 14.4573 20.5372L14.7249 20.533V24.0029ZM16.5292 20.609C16.7731 20.6328 17.0105 20.6598 17.0567 20.6691L17.1408 20.6859V21.469V22.2521H18.2237H19.3065L19.1061 22.6151C18.427 23.8457 17.4538 25.1892 16.4711 26.2529C16.1395 26.6118 15.464 27.2815 15.3289 27.3854L15.2142 27.4735V23.9991V20.5247L15.65 20.5452C15.8897 20.5565 16.2853 20.5853 16.5292 20.609ZM10.1248 22.2669C10.5179 23.05 10.8878 23.6748 11.4058 24.4305C12.2326 25.6367 12.926 26.4613 14.0199 27.5391L14.6178 28.1283L14.1591 28.1108C12.7725 28.0579 11.1679 27.7162 9.74005 27.1698C9.24181 26.9791 8.19622 26.4778 7.74664 26.214C6.80527 25.6617 5.94843 25.0265 5.2063 24.3307C5.04229 24.1769 4.90813 24.0401 4.90813 24.0267C4.90813 23.981 5.77736 23.3476 6.34548 22.9792C6.65664 22.7775 7.06231 22.5314 7.24693 22.4323L7.58263 22.2521H8.36981H9.15698L9.16564 21.9194L9.17429 21.5867L9.43423 21.4922L9.69418 21.3976L9.75329 21.521C9.78583 21.5889 9.95302 21.9246 10.1248 22.2669ZM22.7063 22.492C22.9495 22.624 23.3485 22.8589 23.5928 23.0141C24.0469 23.3025 24.9483 23.9431 24.9883 24.0059C25.0377 24.0834 23.9634 25.0127 23.2075 25.5465C21.0353 27.0801 18.3485 27.994 15.6729 28.1091L15.2295 28.1282L15.5659 27.8167C16.8813 26.5987 17.7431 25.6038 18.6784 24.2231C19.0168 23.7236 19.4604 22.9893 19.7029 22.5275L19.8473 22.2523L21.0557 22.2522L22.264 22.2521L22.7063 22.492Z" fill="#A0A0A0"/>
</svg>
