<svg width="137" height="41" viewBox="0 0 137 41" fill="none" xmlns="http://www.w3.org/2000/svg">
<path fill-rule="evenodd" clip-rule="evenodd" d="M116.244 40.9932H116.894V37.8058L118.033 40.9932H118.629L119.767 37.8058V40.9932H120.418V36.8716H119.442L118.358 40.1139L117.219 36.8716H116.244V40.9932ZM112.45 37.4761H113.75V40.9932H114.455V37.4761H115.756V36.8716H112.45V37.4761ZM96.5522 40.995L137 0H117.432L76.9847 40.995H96.5522ZM99.8162 14.3433H60.4643C48.4853 14.3433 46.3713 15.0027 41.2219 20.2235C36.3978 25.1145 20.6911 40.9735 20.6911 40.9735H37.7653L49.7319 28.8514C52.3879 26.1586 53.7972 25.8839 59.3802 25.8839H88.4876L99.8162 14.3433ZM40.6799 17.8604C37.1567 21.2676 21.8702 36.8784 17.6965 41H-4.23759e-07C-4.23759e-07 41 21.6002 18.1352 29.785 9.94688C38.1865 1.86847 42.3603 0 57.8083 0H113.963L101.822 12.3099H58.9466C48.1059 12.3099 45.6667 13.0793 40.6799 17.8604Z" fill="white"/>
</svg>
