<svg width="10" height="14" viewBox="0 0 10 14" fill="none" xmlns="http://www.w3.org/2000/svg">
<path d="M4.99999 6.66667C5.65926 6.66667 6.30373 6.47117 6.85189 6.1049C7.40006 5.73863 7.8273 5.21803 8.07959 4.60895C8.33188 3.99986 8.39789 3.32964 8.26927 2.68303C8.14066 2.03643 7.82319 1.44249 7.35701 0.976312C6.89084 0.510137 6.29689 0.192668 5.65029 0.0640506C5.00369 -0.0645668 4.33347 0.00144429 3.72438 0.253736C3.11529 0.506029 2.5947 0.93327 2.22842 1.48143C1.86215 2.0296 1.66666 2.67406 1.66666 3.33334C1.66754 4.21712 2.01901 5.06445 2.64394 5.68938C3.26887 6.31431 4.11621 6.66579 4.99999 6.66667ZM4.99999 1.11111C5.4395 1.11111 5.86915 1.24144 6.23459 1.48562C6.60003 1.72981 6.88486 2.07687 7.05306 2.48293C7.22125 2.88899 7.26526 3.3358 7.17951 3.76687C7.09377 4.19794 6.88212 4.5939 6.57134 4.90468C6.26056 5.21547 5.86459 5.42711 5.43352 5.51286C5.00246 5.5986 4.55564 5.5546 4.14958 5.3864C3.74352 5.21821 3.39646 4.93338 3.15228 4.56794C2.9081 4.20249 2.77777 3.77285 2.77777 3.33334C2.77777 2.74397 3.01189 2.17873 3.42864 1.76199C3.84539 1.34524 4.41062 1.11111 4.99999 1.11111V1.11111Z" fill="white"/>
<path d="M7.24611 7.77814H2.75389C2.02378 7.77902 1.32383 8.06944 0.80757 8.58571C0.291306 9.10197 0.000882127 9.80192 0 10.532L0 13.3337H1.11111V10.532C1.11155 10.0965 1.28477 9.67888 1.59276 9.37089C1.90074 9.06291 2.31833 8.88969 2.75389 8.88925H7.24611C7.68167 8.88969 8.09926 9.06291 8.40724 9.37089C8.71523 9.67888 8.88845 10.0965 8.88889 10.532V13.3337H10V10.532C9.99912 9.80192 9.70869 9.10197 9.19243 8.58571C8.67617 8.06944 7.97622 7.77902 7.24611 7.77814V7.77814Z" fill="white"/>
</svg>
